<?xml version="1.0" encoding="UTF-8"?>
<mxfile host="app.diagrams.net" modified="2025-07-03T11:00:00.000Z" agent="5.0" etag="XYZ789" version="21.6.5" type="device">
  <diagram name="Complete Project Architecture" id="complete-architecture">
    <mxGraphModel dx="1600" dy="900" grid="1" gridSize="10" guides="1" tooltips="1" connect="1" arrows="1" fold="1" page="1" pageScale="1" pageWidth="1400" pageHeight="1000" math="0" shadow="0">
      <root>
        <mxCell id="0" />
        <mxCell id="1" parent="0" />
        
        <!-- Title -->
        <mxCell id="title" value="🏗️ ARQUITECTURA COMPLETA DEL PROYECTO&#xa;Demo Spring Boot Security con JWT y Profiles" style="text;html=1;strokeColor=none;fillColor=none;align=center;verticalAlign=middle;whiteSpace=wrap;rounded=0;fontSize=20;fontStyle=1;fontColor=#1f497d;" vertex="1" parent="1">
          <mxGeometry x="450" y="10" width="500" height="50" as="geometry" />
        </mxCell>
        
        <!-- Client Layer -->
        <mxCell id="clientLayer" value="🌐 CAPA CLIENTE" style="rounded=1;whiteSpace=wrap;html=1;fillColor=#e1f5fe;strokeColor=#01579b;strokeWidth=2;fontSize=14;fontStyle=1;" vertex="1" parent="1">
          <mxGeometry x="50" y="80" width="1300" height="40" as="geometry" />
        </mxCell>
        
        <!-- Client Applications -->
        <mxCell id="webApp" value="🖥️ Web Application&#xa;(Frontend)" style="rounded=1;whiteSpace=wrap;html=1;fillColor=#bbdefb;strokeColor=#1976d2;fontStyle=1;" vertex="1" parent="1">
          <mxGeometry x="100" y="140" width="120" height="60" as="geometry" />
        </mxCell>
        
        <mxCell id="mobileApp" value="📱 Mobile App&#xa;(Android/iOS)" style="rounded=1;whiteSpace=wrap;html=1;fillColor=#bbdefb;strokeColor=#1976d2;fontStyle=1;" vertex="1" parent="1">
          <mxGeometry x="250" y="140" width="120" height="60" as="geometry" />
        </mxCell>
        
        <mxCell id="postman" value="🔧 Testing Tools&#xa;(Postman/cURL)" style="rounded=1;whiteSpace=wrap;html=1;fillColor=#bbdefb;strokeColor=#1976d2;fontStyle=1;" vertex="1" parent="1">
          <mxGeometry x="400" y="140" width="120" height="60" as="geometry" />
        </mxCell>
        
        <!-- API Gateway/Load Balancer -->
        <mxCell id="apiGateway" value="🚪 API Gateway / Load Balancer&#xa;(Nginx, HAProxy)" style="rounded=1;whiteSpace=wrap;html=1;fillColor=#f3e5f5;strokeColor=#7b1fa2;strokeWidth=2;fontStyle=1;" vertex="1" parent="1">
          <mxGeometry x="100" y="240" width="420" height="50" as="geometry" />
        </mxCell>
        
        <!-- Spring Boot Application Layer -->
        <mxCell id="springBootLayer" value="🍃 SPRING BOOT APPLICATION" style="rounded=1;whiteSpace=wrap;html=1;fillColor=#e8f5e8;strokeColor=#2e7d32;strokeWidth=2;fontSize=14;fontStyle=1;" vertex="1" parent="1">
          <mxGeometry x="50" y="320" width="1300" height="40" as="geometry" />
        </mxCell>
        
        <!-- Controllers Layer -->
        <mxCell id="controllersLayer" value="🎮 CONTROLLERS LAYER" style="rounded=1;whiteSpace=wrap;html=1;fillColor=#fff3e0;strokeColor=#ef6c00;strokeWidth=2;fontSize=12;fontStyle=1;" vertex="1" parent="1">
          <mxGeometry x="100" y="380" width="420" height="30" as="geometry" />
        </mxCell>
        
        <mxCell id="authController" value="🔐 AuthController&#xa;/api/auth/*&#xa;• POST /login&#xa;• POST /signup" style="rounded=1;whiteSpace=wrap;html=1;fillColor=#ffe0b2;strokeColor=#f57c00;fontStyle=1;" vertex="1" parent="1">
          <mxGeometry x="120" y="430" width="140" height="80" as="geometry" />
        </mxCell>
        
        <mxCell id="protectedController" value="🛡️ ProtectedController&#xa;/api/protected/*&#xa;• GET /hello&#xa;• GET /admin&#xa;• GET /user" style="rounded=1;whiteSpace=wrap;html=1;fillColor=#ffe0b2;strokeColor=#f57c00;fontStyle=1;" vertex="1" parent="1">
          <mxGeometry x="300" y="430" width="140" height="80" as="geometry" />
        </mxCell>
        
        <!-- Security Layer -->
        <mxCell id="securityLayer" value="🔒 SECURITY LAYER" style="rounded=1;whiteSpace=wrap;html=1;fillColor=#ffebee;strokeColor=#c62828;strokeWidth=2;fontSize=12;fontStyle=1;" vertex="1" parent="1">
          <mxGeometry x="580" y="380" width="420" height="30" as="geometry" />
        </mxCell>
        
        <mxCell id="jwtAuthFilter" value="🔍 JwtAuthFilter&#xa;• Extract JWT from header&#xa;• Validate token&#xa;• Set SecurityContext" style="rounded=1;whiteSpace=wrap;html=1;fillColor=#ffcdd2;strokeColor=#d32f2f;fontStyle=1;" vertex="1" parent="1">
          <mxGeometry x="600" y="430" width="140" height="80" as="geometry" />
        </mxCell>
        
        <mxCell id="securityConfig" value="⚙️ SecurityConfig&#xa;• CORS configuration&#xa;• CSRF disabled&#xa;• JWT filter chain&#xa;• Stateless sessions" style="rounded=1;whiteSpace=wrap;html=1;fillColor=#ffcdd2;strokeColor=#d32f2f;fontStyle=1;" vertex="1" parent="1">
          <mxGeometry x="780" y="430" width="140" height="80" as="geometry" />
        </mxCell>
        
        <!-- Service Layer -->
        <mxCell id="serviceLayer" value="⚡ SERVICE LAYER" style="rounded=1;whiteSpace=wrap;html=1;fillColor=#f1f8e9;strokeColor=#689f38;strokeWidth=2;fontSize=12;fontStyle=1;" vertex="1" parent="1">
          <mxGeometry x="100" y="540" width="420" height="30" as="geometry" />
        </mxCell>
        
        <mxCell id="userService" value="👤 UserService&#xa;• findByEmail()&#xa;• createUser()&#xa;• validateCredentials()&#xa;• Password encoding" style="rounded=1;whiteSpace=wrap;html=1;fillColor=#dcedc8;strokeColor=#8bc34a;fontStyle=1;" vertex="1" parent="1">
          <mxGeometry x="120" y="590" width="140" height="80" as="geometry" />
        </mxCell>
        
        <mxCell id="userDetailsService" value="🔑 UserDetailsServiceImpl&#xa;• loadUserByUsername()&#xa;• Spring Security integration&#xa;• User authorities" style="rounded=1;whiteSpace=wrap;html=1;fillColor=#dcedc8;strokeColor=#8bc34a;fontStyle=1;" vertex="1" parent="1">
          <mxGeometry x="300" y="590" width="140" height="80" as="geometry" />
        </mxCell>
        
        <!-- Utility Services -->
        <mxCell id="utilityLayer" value="🛠️ UTILITY SERVICES" style="rounded=1;whiteSpace=wrap;html=1;fillColor=#fff8e1;strokeColor=#ff8f00;strokeWidth=2;fontSize=12;fontStyle=1;" vertex="1" parent="1">
          <mxGeometry x="580" y="540" width="420" height="30" as="geometry" />
        </mxCell>
        
        <mxCell id="jwtHelper" value="🎫 JwtHelper&#xa;• generateToken()&#xa;• validateToken()&#xa;• extractUsername()&#xa;• isTokenExpired()" style="rounded=1;whiteSpace=wrap;html=1;fillColor=#ffecb3;strokeColor=#ffa000;fontStyle=1;" vertex="1" parent="1">
          <mxGeometry x="600" y="590" width="140" height="80" as="geometry" />
        </mxCell>
        
        <mxCell id="passwordEncoder" value="🔐 PasswordEncoder&#xa;• BCryptPasswordEncoder&#xa;• Hash passwords&#xa;• Verify credentials" style="rounded=1;whiteSpace=wrap;html=1;fillColor=#ffecb3;strokeColor=#ffa000;fontStyle=1;" vertex="1" parent="1">
          <mxGeometry x="780" y="590" width="140" height="80" as="geometry" />
        </mxCell>
        
        <!-- Repository Layer -->
        <mxCell id="repositoryLayer" value="🗄️ REPOSITORY LAYER" style="rounded=1;whiteSpace=wrap;html=1;fillColor=#e3f2fd;strokeColor=#1565c0;strokeWidth=2;fontSize=12;fontStyle=1;" vertex="1" parent="1">
          <mxGeometry x="100" y="700" width="420" height="30" as="geometry" />
        </mxCell>
        
        <mxCell id="userRepository" value="📊 UserRepository&#xa;• JdbcClient implementation&#xa;• findByEmail()&#xa;• save()&#xa;• SQL queries" style="rounded=1;whiteSpace=wrap;html=1;fillColor=#bbdefb;strokeColor=#1976d2;fontStyle=1;" vertex="1" parent="1">
          <mxGeometry x="120" y="750" width="140" height="80" as="geometry" />
        </mxCell>
        
        <mxCell id="jdbcClient" value="🔌 JdbcClient&#xa;• Spring Boot 3.2+&#xa;• Database operations&#xa;• Connection management" style="rounded=1;whiteSpace=wrap;html=1;fillColor=#bbdefb;strokeColor=#1976d2;fontStyle=1;" vertex="1" parent="1">
          <mxGeometry x="300" y="750" width="140" height="80" as="geometry" />
        </mxCell>
        
        <!-- Configuration Layer -->
        <mxCell id="configLayer" value="⚙️ CONFIGURATION LAYER" style="rounded=1;whiteSpace=wrap;html=1;fillColor=#fce4ec;strokeColor=#ad1457;strokeWidth=2;fontSize=12;fontStyle=1;" vertex="1" parent="1">
          <mxGeometry x="580" y="700" width="420" height="30" as="geometry" />
        </mxCell>
        
        <mxCell id="databaseConfig" value="🗃️ DatabaseConfig&#xa;• DataSource configuration&#xa;• Profile-based setup&#xa;• Connection pooling" style="rounded=1;whiteSpace=wrap;html=1;fillColor=#f8bbd9;strokeColor=#e91e63;fontStyle=1;" vertex="1" parent="1">
          <mxGeometry x="600" y="750" width="140" height="80" as="geometry" />
        </mxCell>
        
        <mxCell id="liquibaseConfig" value="🔄 Liquibase&#xa;• Database migration&#xa;• Schema versioning&#xa;• Changelog management" style="rounded=1;whiteSpace=wrap;html=1;fillColor=#f8bbd9;strokeColor=#e91e63;fontStyle=1;" vertex="1" parent="1">
          <mxGeometry x="780" y="750" width="140" height="80" as="geometry" />
        </mxCell>
        
        <!-- Database Layer -->
        <mxCell id="databaseLayer" value="🗄️ DATABASE LAYER" style="rounded=1;whiteSpace=wrap;html=1;fillColor=#e8f5e8;strokeColor=#2e7d32;strokeWidth=2;fontSize=14;fontStyle=1;" vertex="1" parent="1">
          <mxGeometry x="50" y="860" width="1300" height="40" as="geometry" />
        </mxCell>
        
        <!-- Development Database -->
        <mxCell id="h2Database" value="🧪 H2 Database&#xa;(Development)&#xa;• In-memory/file&#xa;• H2 Console enabled&#xa;• Fast development" style="shape=cylinder3;whiteSpace=wrap;html=1;boundedLbl=1;backgroundOutline=1;size=15;fillColor=#c8e6c9;strokeColor=#4caf50;fontStyle=1;" vertex="1" parent="1">
          <mxGeometry x="150" y="920" width="120" height="100" as="geometry" />
        </mxCell>
        
        <!-- Production Database -->
        <mxCell id="postgresDatabase" value="🐘 PostgreSQL&#xa;(Production)&#xa;• Persistent storage&#xa;• ACID compliance&#xa;• Scalable" style="shape=cylinder3;whiteSpace=wrap;html=1;boundedLbl=1;backgroundOutline=1;size=15;fillColor=#c8e6c9;strokeColor=#4caf50;fontStyle=1;" vertex="1" parent="1">
          <mxGeometry x="350" y="920" width="120" height="100" as="geometry" />
        </mxCell>
        
        <!-- Spring Profiles -->
        <mxCell id="profilesSection" value="🔧 SPRING PROFILES CONFIGURATION" style="rounded=1;whiteSpace=wrap;html=1;fillColor=#fff3e0;strokeColor=#ef6c00;strokeWidth=2;fontSize=12;fontStyle=1;" vertex="1" parent="1">
          <mxGeometry x="1050" y="380" width="280" height="30" as="geometry" />
        </mxCell>
        
        <mxCell id="devProfile" value="🧪 Development Profile&#xa;• H2 Database&#xa;• Debug logging&#xa;• H2 Console&#xa;• Relaxed security" style="rounded=1;whiteSpace=wrap;html=1;fillColor=#ffe0b2;strokeColor=#f57c00;fontStyle=1;" vertex="1" parent="1">
          <mxGeometry x="1070" y="430" width="120" height="80" as="geometry" />
        </mxCell>
        
        <mxCell id="prodProfile" value="🚀 Production Profile&#xa;• PostgreSQL&#xa;• Error logging only&#xa;• Security hardened&#xa;• Performance optimized" style="rounded=1;whiteSpace=wrap;html=1;fillColor=#ffe0b2;strokeColor=#f57c00;fontStyle=1;" vertex="1" parent="1">
          <mxGeometry x="1210" y="430" width="120" height="80" as="geometry" />
        </mxCell>
        
        <!-- DTOs and Models -->
        <mxCell id="dataLayer" value="📦 DATA TRANSFER OBJECTS & MODELS" style="rounded=1;whiteSpace=wrap;html=1;fillColor=#f3e5f5;strokeColor=#7b1fa2;strokeWidth=2;fontSize=12;fontStyle=1;" vertex="1" parent="1">
          <mxGeometry x="1050" y="540" width="280" height="30" as="geometry" />
        </mxCell>
        
        <mxCell id="userModel" value="👤 User Entity&#xa;• id, email, name&#xa;• password, createdAt&#xa;• Database mapping" style="rounded=1;whiteSpace=wrap;html=1;fillColor=#e1bee7;strokeColor=#8e24aa;fontStyle=1;" vertex="1" parent="1">
          <mxGeometry x="1070" y="590" width="120" height="60" as="geometry" />
        </mxCell>
        
        <mxCell id="dtoModels" value="📋 DTOs (Records)&#xa;• LoginRequest&#xa;• SignupRequest&#xa;• LoginResponse" style="rounded=1;whiteSpace=wrap;html=1;fillColor=#e1bee7;strokeColor=#8e24aa;fontStyle=1;" vertex="1" parent="1">
          <mxGeometry x="1210" y="590" width="120" height="60" as="geometry" />
        </mxCell>
        
        <!-- Testing & Documentation -->
        <mxCell id="testingLayer" value="🧪 TESTING & DOCUMENTATION" style="rounded=1;whiteSpace=wrap;html=1;fillColor=#f1f8e9;strokeColor=#689f38;strokeWidth=2;fontSize=12;fontStyle=1;" vertex="1" parent="1">
          <mxGeometry x="1050" y="680" width="280" height="30" as="geometry" />
        </mxCell>
        
        <mxCell id="unitTests" value="🔬 Unit Tests&#xa;• JUnit 5&#xa;• Mockito&#xa;• Test profiles" style="rounded=1;whiteSpace=wrap;html=1;fillColor=#dcedc8;strokeColor=#8bc34a;fontStyle=1;" vertex="1" parent="1">
          <mxGeometry x="1070" y="730" width="120" height="60" as="geometry" />
        </mxCell>
        
        <mxCell id="documentation" value="📚 Documentation&#xa;• README.md&#xa;• API documentation&#xa;• Deployment guides" style="rounded=1;whiteSpace=wrap;html=1;fillColor=#dcedc8;strokeColor=#8bc34a;fontStyle=1;" vertex="1" parent="1">
          <mxGeometry x="1210" y="730" width="120" height="60" as="geometry" />
        </mxCell>
        
        <!-- External Services -->
        <mxCell id="externalServices" value="🌍 EXTERNAL SERVICES" style="rounded=1;whiteSpace=wrap;html=1;fillColor=#e0f2f1;strokeColor=#00695c;strokeWidth=2;fontSize=12;fontStyle=1;" vertex="1" parent="1">
          <mxGeometry x="580" y="920" width="280" height="30" as="geometry" />
        </mxCell>
        
        <mxCell id="emailService" value="📧 Email Service&#xa;(Future enhancement)&#xa;• User verification&#xa;• Password reset" style="rounded=1;whiteSpace=wrap;html=1;fillColor=#b2dfdb;strokeColor=#00796b;fontStyle=1;" vertex="1" parent="1">
          <mxGeometry x="600" y="970" width="120" height="60" as="geometry" />
        </mxCell>
        
        <mxCell id="loggingService" value="📊 Logging/Monitoring&#xa;(Future enhancement)&#xa;• ELK Stack&#xa;• Application metrics" style="rounded=1;whiteSpace=wrap;html=1;fillColor=#b2dfdb;strokeColor=#00796b;fontStyle=1;" vertex="1" parent="1">
          <mxGeometry x="740" y="970" width="120" height="60" as="geometry" />
        </mxCell>
        
        <!-- Data Flow Arrows -->
        <!-- Client to API Gateway -->
        <mxCell id="clientToGateway" value="HTTP/HTTPS&#xa;Requests" style="edgeStyle=orthogonalEdgeStyle;rounded=0;orthogonalLoop=1;jettySize=auto;html=1;strokeColor=#2196f3;strokeWidth=2;fontColor=#2196f3;fontStyle=1;" edge="1" parent="1" source="webApp" target="apiGateway">
          <mxGeometry relative="1" as="geometry">
            <Array as="points">
              <mxPoint x="160" y="220" />
              <mxPoint x="250" y="220" />
            </Array>
          </mxGeometry>
        </mxCell>
        
        <!-- API Gateway to Controllers -->
        <mxCell id="gatewayToControllers" value="Load Balanced&#xa;Requests" style="edgeStyle=orthogonalEdgeStyle;rounded=0;orthogonalLoop=1;jettySize=auto;html=1;strokeColor=#2196f3;strokeWidth=2;fontColor=#2196f3;fontStyle=1;" edge="1" parent="1" source="apiGateway" target="authController">
          <mxGeometry relative="1" as="geometry">
            <Array as="points">
              <mxPoint x="250" y="350" />
              <mxPoint x="190" y="350" />
            </Array>
          </mxGeometry>
        </mxCell>
        
        <!-- Security Filter Integration -->
        <mxCell id="securityIntegration" value="JWT Validation&#xa;Filter Chain" style="edgeStyle=orthogonalEdgeStyle;rounded=0;orthogonalLoop=1;jettySize=auto;html=1;strokeColor=#f44336;strokeWidth=2;fontColor=#f44336;fontStyle=1;" edge="1" parent="1" source="jwtAuthFilter" target="protectedController">
          <mxGeometry relative="1" as="geometry">
            <Array as="points">
              <mxPoint x="550" y="470" />
              <mxPoint x="450" y="470" />
            </Array>
          </mxGeometry>
        </mxCell>
        
        <!-- Controllers to Services -->
        <mxCell id="controllersToServices" value="Business Logic&#xa;Calls" style="edgeStyle=orthogonalEdgeStyle;rounded=0;orthogonalLoop=1;jettySize=auto;html=1;strokeColor=#4caf50;strokeWidth=2;fontColor=#4caf50;fontStyle=1;" edge="1" parent="1" source="authController" target="userService">
          <mxGeometry relative="1" as="geometry" />
        </mxCell>
        
        <!-- Services to Repository -->
        <mxCell id="servicesToRepository" value="Data Access&#xa;Operations" style="edgeStyle=orthogonalEdgeStyle;rounded=0;orthogonalLoop=1;jettySize=auto;html=1;strokeColor=#2196f3;strokeWidth=2;fontColor=#2196f3;fontStyle=1;" edge="1" parent="1" source="userService" target="userRepository">
          <mxGeometry relative="1" as="geometry" />
        </mxCell>
        
        <!-- Repository to Database -->
        <mxCell id="repositoryToDatabase" value="SQL Queries&#xa;CRUD Operations" style="edgeStyle=orthogonalEdgeStyle;rounded=0;orthogonalLoop=1;jettySize=auto;html=1;strokeColor=#4caf50;strokeWidth=2;fontColor=#4caf50;fontStyle=1;" edge="1" parent="1" source="userRepository" target="h2Database">
          <mxGeometry relative="1" as="geometry">
            <Array as="points">
              <mxPoint x="190" y="880" />
              <mxPoint x="210" y="880" />
            </Array>
          </mxGeometry>
        </mxCell>
        
        <!-- JWT Helper Integration -->
        <mxCell id="jwtIntegration" value="Token Generation&#xa;& Validation" style="edgeStyle=orthogonalEdgeStyle;rounded=0;orthogonalLoop=1;jettySize=auto;html=1;strokeColor=#ff9800;strokeWidth=2;fontColor=#ff9800;fontStyle=1;" edge="1" parent="1" source="authController" target="jwtHelper">
          <mxGeometry relative="1" as="geometry">
            <Array as="points">
              <mxPoint x="500" y="470" />
              <mxPoint x="670" y="470" />
              <mxPoint x="670" y="570" />
            </Array>
          </mxGeometry>
        </mxCell>
        
        <!-- Profile Configuration -->
        <mxCell id="profileConfig" value="Environment&#xa;Configuration" style="edgeStyle=orthogonalEdgeStyle;rounded=0;orthogonalLoop=1;jettySize=auto;html=1;strokeColor=#9c27b0;strokeWidth=2;fontColor=#9c27b0;fontStyle=1;" edge="1" parent="1" source="devProfile" target="h2Database">
          <mxGeometry relative="1" as="geometry">
            <Array as="points">
              <mxPoint x="1130" y="850" />
              <mxPoint x="210" y="850" />
            </Array>
          </mxGeometry>
        </mxCell>
        
        <!-- Technology Stack -->
        <mxCell id="techStack" value="🔧 TECHNOLOGY STACK&#xa;&#xa;• Java 17&#xa;• Spring Boot 3.2+&#xa;• Spring Security 6&#xa;• JWT (jjwt 0.12.3)&#xa;• JdbcClient&#xa;• Liquibase&#xa;• H2 Database (dev)&#xa;• PostgreSQL (prod)&#xa;• BCrypt&#xa;• Maven&#xa;• JUnit 5&#xa;• Docker support" style="text;html=1;strokeColor=#795548;fillColor=#efebe9;align=left;verticalAlign=top;whiteSpace=wrap;rounded=1;fontSize=10;fontStyle=1;" vertex="1" parent="1">
          <mxGeometry x="950" y="920" width="180" height="180" as="geometry" />
        </mxCell>
        
        <!-- Security Features -->
        <mxCell id="securityFeatures" value="🔐 SECURITY FEATURES&#xa;&#xa;• JWT Authentication&#xa;• Password Hashing (BCrypt)&#xa;• CORS Configuration&#xa;• CSRF Protection Disabled&#xa;• Stateless Sessions&#xa;• Token Expiration&#xa;• Authorization Headers&#xa;• Role-based Access&#xa;• SQL Injection Prevention&#xa;• Input Validation" style="text;html=1;strokeColor=#d32f2f;fillColor=#ffebee;align=left;verticalAlign=top;whiteSpace=wrap;rounded=1;fontSize=10;fontStyle=1;" vertex="1" parent="1">
          <mxGeometry x="1150" y="920" width="180" height="180" as="geometry" />
        </mxCell>
        
        <!-- Deployment Options -->
        <mxCell id="deploymentOptions" value="🚀 DEPLOYMENT OPTIONS&#xa;&#xa;💻 Local Development:&#xa;• mvn spring-boot:run&#xa;• IDE integration&#xa;• H2 Console access&#xa;&#xa;🐳 Docker:&#xa;• docker-compose.yml&#xa;• Containerized deployment&#xa;• PostgreSQL integration&#xa;&#xa;☁️ Cloud Platforms:&#xa;• AWS (Elastic Beanstalk)&#xa;• Azure (App Service)&#xa;• Google Cloud (App Engine)&#xa;• Heroku" style="text;html=1;strokeColor=#1565c0;fillColor=#e3f2fd;align=left;verticalAlign=top;whiteSpace=wrap;rounded=1;fontSize=9;fontStyle=1;" vertex="1" parent="1">
          <mxGeometry x="50" y="1050" width="280" height="160" as="geometry" />
        </mxCell>
        
        <!-- API Endpoints -->
        <mxCell id="apiEndpoints" value="🌐 API ENDPOINTS&#xa;&#xa;🔓 Public Endpoints:&#xa;• POST /api/auth/login&#xa;• POST /api/auth/signup&#xa;&#xa;🔒 Protected Endpoints:&#xa;• GET /api/protected/hello&#xa;• GET /api/protected/admin&#xa;• GET /api/protected/user&#xa;&#xa;📊 Monitoring:&#xa;• GET /actuator/health&#xa;• GET /actuator/info" style="text;html=1;strokeColor=#e65100;fillColor=#fff3e0;align=left;verticalAlign=top;whiteSpace=wrap;rounded=1;fontSize=9;fontStyle=1;" vertex="1" parent="1">
          <mxGeometry x="350" y="1050" width="200" height="160" as="geometry" />
        </mxCell>
        
        <!-- Testing Strategy -->
        <mxCell id="testingStrategy" value="🧪 TESTING STRATEGY&#xa;&#xa;✅ Unit Tests:&#xa;• Service layer testing&#xa;• Repository testing&#xa;• JWT utility testing&#xa;&#xa;🔗 Integration Tests:&#xa;• Controller testing&#xa;• Security testing&#xa;• Database integration&#xa;&#xa;📝 API Testing:&#xa;• Postman collections&#xa;• cURL scripts&#xa;• Automated testing" style="text;html=1;strokeColor=#2e7d32;fillColor=#e8f5e8;align=left;verticalAlign=top;whiteSpace=wrap;rounded=1;fontSize=9;fontStyle=1;" vertex="1" parent="1">
          <mxGeometry x="570" y="1050" width="200" height="160" as="geometry" />
        </mxCell>
        
        <!-- Performance & Scalability -->
        <mxCell id="performance" value="⚡ PERFORMANCE & SCALABILITY&#xa;&#xa;🚀 Optimizations:&#xa;• Stateless authentication&#xa;• Connection pooling&#xa;• Efficient queries&#xa;• Caching strategies&#xa;&#xa;📈 Scalability:&#xa;• Horizontal scaling&#xa;• Load balancing&#xa;• Database clustering&#xa;• Microservices ready&#xa;&#xa;📊 Monitoring:&#xa;• Application metrics&#xa;• Database performance&#xa;• JWT token lifecycle" style="text;html=1;strokeColor=#ad1457;fillColor=#fce4ec;align=left;verticalAlign=top;whiteSpace=wrap;rounded=1;fontSize=9;fontStyle=1;" vertex="1" parent="1">
          <mxGeometry x="790" y="1050" width="200" height="160" as="geometry" />
        </mxCell>
        
        <!-- Development Workflow -->
        <mxCell id="devWorkflow" value="🔄 DEVELOPMENT WORKFLOW&#xa;&#xa;🛠️ Development:&#xa;• Spring DevTools&#xa;• Live reload&#xa;• H2 Console&#xa;• Debug logging&#xa;&#xa;🔄 CI/CD:&#xa;• Git workflow&#xa;• Automated testing&#xa;• Build pipelines&#xa;• Deployment automation&#xa;&#xa;📦 Packaging:&#xa;• Maven builds&#xa;• JAR deployment&#xa;• Docker images" style="text;html=1;strokeColor=#5d4037;fillColor=#efebe9;align=left;verticalAlign=top;whiteSpace=wrap;rounded=1;fontSize=9;fontStyle=1;" vertex="1" parent="1">
          <mxGeometry x="1010" y="1050" width="200" height="160" as="geometry" />
        </mxCell>
        
        <!-- Future Enhancements -->
        <mxCell id="futureEnhancements" value="🚀 FUTURE ENHANCEMENTS&#xa;&#xa;🔮 Planned Features:&#xa;• Role-based authorization&#xa;• Email verification&#xa;• Password reset&#xa;• Rate limiting&#xa;• API versioning&#xa;&#xa;🔧 Technical Improvements:&#xa;• Redis caching&#xa;• Message queues&#xa;• Event sourcing&#xa;• GraphQL API&#xa;• Microservices split" style="text;html=1;strokeColor=#6a1b9a;fillColor=#f3e5f5;align=left;verticalAlign=top;whiteSpace=wrap;rounded=1;fontSize=9;fontStyle=1;" vertex="1" parent="1">
          <mxGeometry x="1230" y="1050" width="200" height="160" as="geometry" />
        </mxCell>
        
      </root>
    </mxGraphModel>
  </diagram>
</mxfile>
